<svg width="1945" height="522" viewBox="0 0 1945 522" fill="none" xmlns="http://www.w3.org/2000/svg">
<path fill-rule="evenodd" clip-rule="evenodd" d="M1175.14 74C1241.9 74 1299.09 74.1624 1386.26 80.7427C1473.43 87.3231 1544.27 98.966 1669.12 129.295C1793.96 159.624 1872.26 204.748 1887.77 218.803C1903.29 232.857 1905.5 248.733 1897.38 265.007C1889.25 281.281 1832.38 301.218 1796.92 321.594C1761.47 341.97 1722.01 367.853 1710.48 382.624C1698.96 397.394 1701.94 402.999 1698.96 403C1695.97 402.999 1670.56 343.051 1649.17 331.981C1627.78 320.911 1608.36 328.45 1587.23 325.317C1555.39 320.596 1529.1 306.033 1519.77 289.277C1504.26 261.397 1523.39 230.813 1523.39 230.813C1523.43 230.756 1536.5 215 1536.5 201C1536.5 187 1521.3 172.63 1503.5 161.5C1483 148.678 1472.88 146.152 1441.08 136.311C1406.15 125.499 1337.1 122.651 1337.1 122.651C1337.05 122.651 1274.84 123.101 1228.69 134.309C1182.51 145.521 1154.91 167.094 1153.2 167.945C1151.5 168.795 1131.12 182.289 1131.12 181.96C1131.12 181.63 1142.48 167.638 1144.69 163.909C1165.99 129.877 1076.33 110.127 1047.41 107.236C1018.49 104.346 1001.4 102.575 980.416 101.873C967.887 101.453 938 102.419 938 101.873C938.006 101.324 965.479 90.6821 1011.26 84.9625C1057.05 79.2423 1108.39 74 1175.14 74ZM1677.15 174.991C1676.66 174.998 1676.24 175.035 1675.91 175.115C1675.75 175.155 1675.59 175.211 1675.45 175.295C1675.31 175.38 1675.16 175.513 1675.08 175.714C1674.97 176.02 1675.04 176.351 1675.15 176.617C1675.26 176.902 1675.44 177.222 1675.68 177.566C1676.15 178.256 1676.88 179.116 1677.82 180.104C1679.7 182.084 1682.47 184.631 1685.84 187.468C1692.59 193.142 1701.77 200 1711.11 205.823C1729.76 217.446 1736.21 220.055 1745.26 220.93C1749.78 221.367 1754.46 220.911 1758.32 219.323C1762.18 217.732 1765.25 214.99 1766.45 210.862C1767.62 206.818 1767.32 203.652 1765.84 201.015C1764.37 198.402 1761.77 196.379 1758.5 194.53C1755.2 192.666 1748.28 190.164 1740.78 187.861C1733.25 185.553 1725.07 183.428 1719.21 182.33C1716.29 181.784 1712.16 180.944 1707.59 180.024C1703.02 179.104 1698.01 178.104 1693.34 177.241C1688.67 176.378 1684.33 175.649 1681.1 175.27C1679.49 175.081 1678.14 174.977 1677.15 174.991Z" fill="#FC5900"/>
<path d="M127.777 247.168C126.254 246.426 124.242 245.586 121.742 244.648C119.242 243.711 116.41 242.832 113.246 242.012C110.082 241.152 106.645 240.449 102.934 239.902C99.2227 239.316 95.4141 239.023 91.5078 239.023C88.3828 239.023 85.707 239.121 83.4805 239.316C81.293 239.512 79.4375 239.766 77.9141 240.078C76.4297 240.391 75.2383 240.762 74.3398 241.191C73.4805 241.582 72.8164 241.992 72.3477 242.422C71.8789 242.852 71.5664 243.281 71.4102 243.711C71.293 244.141 71.2344 244.531 71.2344 244.883C71.2344 246.055 71.8203 247.09 72.9922 247.988C74.1641 248.848 75.7656 249.629 77.7969 250.332C79.8281 250.996 82.1914 251.641 84.8867 252.266C87.582 252.852 90.4336 253.477 93.4414 254.141C96.4883 254.766 99.6133 255.469 102.816 256.25C106.059 256.992 109.184 257.871 112.191 258.887C115.238 259.902 118.109 261.094 120.805 262.461C123.5 263.789 125.863 265.352 127.895 267.148C129.926 268.945 131.527 271.016 132.699 273.359C133.871 275.703 134.457 278.379 134.457 281.387C134.457 285.254 133.773 288.574 132.406 291.348C131.039 294.121 129.203 296.465 126.898 298.379C124.633 300.293 121.996 301.836 118.988 303.008C115.98 304.141 112.816 305.02 109.496 305.645C106.215 306.27 102.875 306.68 99.4766 306.875C96.1172 307.07 92.9141 307.168 89.8672 307.168C81.8984 307.168 74.5156 306.504 67.7188 305.176C60.9609 303.887 54.9844 302.266 49.7891 300.312V281.094C55.1406 284.062 61.2344 286.387 68.0703 288.066C74.9453 289.746 82.2891 290.586 90.1016 290.586C94.7109 290.586 98.4609 290.352 101.352 289.883C104.281 289.375 106.566 288.75 108.207 288.008C109.848 287.227 110.961 286.387 111.547 285.488C112.133 284.59 112.426 283.73 112.426 282.91C112.426 281.621 111.84 280.508 110.668 279.57C109.496 278.594 107.895 277.754 105.863 277.051C103.832 276.309 101.469 275.645 98.7734 275.059C96.0781 274.434 93.207 273.828 90.1602 273.242C87.1523 272.617 84.0469 271.953 80.8438 271.25C77.6406 270.547 74.5156 269.727 71.4688 268.789C68.4609 267.812 65.6094 266.699 62.9141 265.449C60.2188 264.16 57.8555 262.656 55.8242 260.938C53.793 259.18 52.1914 257.168 51.0195 254.902C49.8477 252.598 49.2617 249.941 49.2617 246.934C49.2617 243.379 49.8867 240.312 51.1367 237.734C52.3867 235.156 54.0664 232.969 56.1758 231.172C58.3242 229.336 60.7852 227.852 63.5586 226.719C66.3711 225.586 69.3203 224.707 72.4062 224.082C75.4922 223.457 78.6172 223.027 81.7812 222.793C84.9453 222.559 87.9531 222.441 90.8047 222.441C93.9297 222.441 97.1328 222.598 100.414 222.91C103.734 223.223 106.996 223.672 110.199 224.258C113.402 224.805 116.488 225.449 119.457 226.191C122.465 226.934 125.238 227.715 127.777 228.535V247.168ZM239.321 277.871C239.321 281.895 238.325 285.684 236.333 289.238C234.341 292.793 231.352 295.898 227.368 298.555C223.384 301.211 218.403 303.32 212.427 304.883C206.489 306.406 199.536 307.168 191.567 307.168C183.598 307.168 176.606 306.406 170.591 304.883C164.614 303.32 159.634 301.211 155.649 298.555C151.665 295.898 148.677 292.793 146.684 289.238C144.692 285.684 143.696 281.895 143.696 277.871V224.492H165.376V270.078C165.376 272.773 165.708 275.332 166.372 277.754C167.075 280.137 168.364 282.227 170.239 284.023C172.153 285.82 174.809 287.246 178.208 288.301C181.645 289.355 186.098 289.883 191.567 289.883C196.997 289.883 201.411 289.355 204.809 288.301C208.208 287.246 210.845 285.82 212.72 284.023C214.634 282.227 215.923 280.137 216.587 277.754C217.251 275.332 217.583 272.773 217.583 270.078V224.492H239.321V277.871ZM274.986 255.195L319.517 224.492H348.638L294.439 263.105L352.271 305H320.572L274.986 271.543V305H253.13V224.492H274.986V255.195ZM354.127 305V224.492H435.631V241.66H376.452V254.961H432.584V272.129H376.452V287.832H436.452V305H354.127ZM446.687 305V224.492H468.425V287.363H527.195V305H446.687ZM632.469 264.688C632.469 269.844 631.902 274.434 630.77 278.457C629.637 282.441 628.035 285.918 625.965 288.887C623.934 291.855 621.473 294.375 618.582 296.445C615.73 298.516 612.547 300.176 609.031 301.426C605.516 302.676 601.727 303.594 597.664 304.18C593.602 304.727 589.363 305 584.949 305H533.855V224.492H584.832C589.246 224.492 593.484 224.785 597.547 225.371C601.609 225.918 605.398 226.816 608.914 228.066C612.469 229.316 615.691 230.977 618.582 233.047C621.473 235.078 623.934 237.598 625.965 240.605C628.035 243.574 629.637 247.051 630.77 251.035C631.902 255.02 632.469 259.57 632.469 264.688ZM610.555 264.688C610.555 260.82 610.047 257.461 609.031 254.609C608.055 251.758 606.453 249.414 604.227 247.578C602.039 245.703 599.168 244.316 595.613 243.418C592.059 242.48 587.723 242.012 582.605 242.012H555.594V287.48H582.605C587.723 287.48 592.059 287.031 595.613 286.133C599.168 285.195 602.039 283.789 604.227 281.914C606.453 280 608.055 277.617 609.031 274.766C610.047 271.914 610.555 268.555 610.555 264.688ZM736.571 277.871C736.571 281.895 735.575 285.684 733.583 289.238C731.591 292.793 728.602 295.898 724.618 298.555C720.634 301.211 715.653 303.32 709.677 304.883C703.739 306.406 696.786 307.168 688.817 307.168C680.848 307.168 673.856 306.406 667.841 304.883C661.864 303.32 656.884 301.211 652.899 298.555C648.915 295.898 645.927 292.793 643.934 289.238C641.942 285.684 640.946 281.895 640.946 277.871V224.492H662.626V270.078C662.626 272.773 662.958 275.332 663.622 277.754C664.325 280.137 665.614 282.227 667.489 284.023C669.403 285.82 672.059 287.246 675.458 288.301C678.895 289.355 683.348 289.883 688.817 289.883C694.247 289.883 698.661 289.355 702.059 288.301C705.458 287.246 708.095 285.82 709.97 284.023C711.884 282.227 713.173 280.137 713.837 277.754C714.501 275.332 714.833 272.773 714.833 270.078V224.492H736.571V277.871ZM852.744 305V248.457L822.861 305H802.002L772.119 248.457V305H750.38V224.492H779.912L812.431 285.43L844.951 224.492H874.365V305H852.744ZM888.76 305V224.492H910.498V305H888.76ZM999.132 247.168C997.609 246.426 995.597 245.586 993.097 244.648C990.597 243.711 987.765 242.832 984.601 242.012C981.437 241.152 977.999 240.449 974.288 239.902C970.577 239.316 966.769 239.023 962.862 239.023C959.737 239.023 957.062 239.121 954.835 239.316C952.648 239.512 950.792 239.766 949.269 240.078C947.784 240.391 946.593 240.762 945.695 241.191C944.835 241.582 944.171 241.992 943.702 242.422C943.234 242.852 942.921 243.281 942.765 243.711C942.648 244.141 942.589 244.531 942.589 244.883C942.589 246.055 943.175 247.09 944.347 247.988C945.519 248.848 947.12 249.629 949.152 250.332C951.183 250.996 953.546 251.641 956.241 252.266C958.937 252.852 961.788 253.477 964.796 254.141C967.843 254.766 970.968 255.469 974.171 256.25C977.413 256.992 980.538 257.871 983.546 258.887C986.593 259.902 989.464 261.094 992.159 262.461C994.855 263.789 997.218 265.352 999.249 267.148C1001.28 268.945 1002.88 271.016 1004.05 273.359C1005.23 275.703 1005.81 278.379 1005.81 281.387C1005.81 285.254 1005.13 288.574 1003.76 291.348C1002.39 294.121 1000.56 296.465 998.253 298.379C995.987 300.293 993.351 301.836 990.343 303.008C987.335 304.141 984.171 305.02 980.851 305.645C977.57 306.27 974.23 306.68 970.831 306.875C967.472 307.07 964.269 307.168 961.222 307.168C953.253 307.168 945.87 306.504 939.073 305.176C932.316 303.887 926.339 302.266 921.144 300.312V281.094C926.495 284.062 932.589 286.387 939.425 288.066C946.3 289.746 953.644 290.586 961.456 290.586C966.066 290.586 969.816 290.352 972.706 289.883C975.636 289.375 977.921 288.75 979.562 288.008C981.202 287.227 982.316 286.387 982.902 285.488C983.487 284.59 983.78 283.73 983.78 282.91C983.78 281.621 983.195 280.508 982.023 279.57C980.851 278.594 979.249 277.754 977.218 277.051C975.187 276.309 972.823 275.645 970.128 275.059C967.433 274.434 964.562 273.828 961.515 273.242C958.507 272.617 955.402 271.953 952.198 271.25C948.995 270.547 945.87 269.727 942.823 268.789C939.816 267.812 936.964 266.699 934.269 265.449C931.573 264.16 929.21 262.656 927.179 260.938C925.148 259.18 923.546 257.168 922.374 254.902C921.202 252.598 920.616 249.941 920.616 246.934C920.616 243.379 921.241 240.312 922.491 237.734C923.741 235.156 925.421 232.969 927.53 231.172C929.679 229.336 932.14 227.852 934.913 226.719C937.726 225.586 940.675 224.707 943.761 224.082C946.847 223.457 949.972 223.027 953.136 222.793C956.3 222.559 959.308 222.441 962.159 222.441C965.284 222.441 968.487 222.598 971.769 222.91C975.089 223.223 978.351 223.672 981.554 224.258C984.757 224.805 987.843 225.449 990.812 226.191C993.82 226.934 996.593 227.715 999.132 228.535V247.168ZM1037.49 255.195L1082.02 224.492H1111.14L1056.95 263.105L1114.78 305H1083.08L1037.49 271.543V305H1015.64V224.492H1037.49V255.195ZM1116.63 305V224.492H1138.37V287.363H1197.14V305H1116.63ZM1298.84 277.871C1298.84 281.895 1297.85 285.684 1295.85 289.238C1293.86 292.793 1290.87 295.898 1286.89 298.555C1282.9 301.211 1277.92 303.32 1271.95 304.883C1266.01 306.406 1259.06 307.168 1251.09 307.168C1243.12 307.168 1236.13 306.406 1230.11 304.883C1224.13 303.32 1219.15 301.211 1215.17 298.555C1211.19 295.898 1208.2 292.793 1206.2 289.238C1204.21 285.684 1203.22 281.895 1203.22 277.871V224.492H1224.9V270.078C1224.9 272.773 1225.23 275.332 1225.89 277.754C1226.6 280.137 1227.88 282.227 1229.76 284.023C1231.67 285.82 1234.33 287.246 1237.73 288.301C1241.17 289.355 1245.62 289.883 1251.09 289.883C1256.52 289.883 1260.93 289.355 1264.33 288.301C1267.73 287.246 1270.36 285.82 1272.24 284.023C1274.15 282.227 1275.44 280.137 1276.11 277.754C1276.77 275.332 1277.1 272.773 1277.1 270.078V224.492H1298.84V277.871ZM1404.47 282.793C1404.47 285.918 1404.06 288.633 1403.24 290.938C1402.42 293.242 1401.26 295.234 1399.78 296.914C1398.33 298.555 1396.58 299.902 1394.51 300.957C1392.47 301.973 1390.21 302.793 1387.71 303.418C1385.25 304.004 1382.61 304.414 1379.8 304.648C1376.99 304.883 1374.08 305 1371.07 305H1312.65V224.492H1370.01C1372.32 224.492 1374.62 224.59 1376.93 224.785C1379.27 224.98 1381.5 225.352 1383.61 225.898C1385.72 226.406 1387.67 227.129 1389.47 228.066C1391.3 229.004 1392.89 230.234 1394.21 231.758C1395.58 233.281 1396.64 235.117 1397.38 237.266C1398.16 239.414 1398.55 241.953 1398.55 244.883C1398.55 250.117 1397.26 254.277 1394.68 257.363C1392.1 260.41 1388.04 262.441 1382.49 263.457C1386.4 263.73 1389.74 264.336 1392.51 265.273C1395.33 266.172 1397.61 267.422 1399.37 269.023C1401.13 270.586 1402.42 272.52 1403.24 274.824C1404.06 277.09 1404.47 279.746 1404.47 282.793ZM1377.34 248.34C1377.34 247.324 1377.18 246.367 1376.87 245.469C1376.56 244.531 1375.99 243.711 1375.17 243.008C1374.35 242.305 1373.24 241.738 1371.83 241.309C1370.42 240.879 1368.63 240.664 1366.44 240.664H1334.39V255.781H1366.44C1368.63 255.781 1370.42 255.586 1371.83 255.195C1373.24 254.805 1374.35 254.277 1375.17 253.613C1375.99 252.949 1376.56 252.168 1376.87 251.27C1377.18 250.332 1377.34 249.355 1377.34 248.34ZM1382.38 280.273C1382.38 278.438 1382.06 276.973 1381.44 275.879C1380.81 274.746 1379.84 273.887 1378.51 273.301C1377.18 272.676 1375.46 272.266 1373.35 272.07C1371.24 271.875 1368.72 271.777 1365.8 271.777H1334.39V288.828H1365.8C1368.72 288.828 1371.24 288.73 1373.35 288.535C1375.46 288.34 1377.18 287.93 1378.51 287.305C1379.84 286.68 1380.81 285.82 1381.44 284.727C1382.06 283.594 1382.38 282.109 1382.38 280.273ZM1413.53 305V224.492H1435.27V305H1413.53Z" fill="black"/>
</svg>
